<svg xmlns="http://www.w3.org/2000/svg" xmlns:xlink="http://www.w3.org/1999/xlink" xmlns:lucid="lucid" width="976.5" height="861.19"><g transform="translate(-1777 -79.80908238619054)" lucid:page-tab-id="0_0"><path d="M1500 0h1500v1000H1500z" fill="#fff"/><path d="M1820 108.8a8 8 0 0 1 8-8h144a8 8 0 0 1 8 8v104a8 8 0 0 1-8 8h-144a8 8 0 0 1-8-8z" stroke="#000" stroke-opacity="0" stroke-width="2" fill="#fcfcca"/><use xlink:href="#a" transform="matrix(1,0,0,1,1832,112.80908238619054) translate(30 30)"/><use xlink:href="#b" transform="matrix(1,0,0,1,1832,112.80908238619054) translate(25.549999999999997 51.6)"/><use xlink:href="#c" transform="matrix(1,0,0,1,1832,112.80908238619054) translate(32.075 73.2)"/><path d="M1820 808a8 8 0 0 1 8-8h144a8 8 0 0 1 8 8v104a8 8 0 0 1-8 8h-144a8 8 0 0 1-8-8z" stroke="#000" stroke-opacity="0" stroke-width="2" fill="#fcfcca"/><use xlink:href="#d" transform="matrix(1,0,0,1,1832,812) translate(19.549999999999997 19.19999999999999)"/><use xlink:href="#e" transform="matrix(1,0,0,1,1832,812) translate(87.45 19.19999999999999)"/><use xlink:href="#f" transform="matrix(1,0,0,1,1832,812) translate(6.074999999999996 40.79999999999999)"/><use xlink:href="#g" transform="matrix(1,0,0,1,1832,812) translate(95.975 40.79999999999999)"/><use xlink:href="#h" transform="matrix(1,0,0,1,1832,812) translate(27.150000000000006 62.39999999999999)"/><use xlink:href="#i" transform="matrix(1,0,0,1,1832,812) translate(68.05000000000001 62.39999999999999)"/><use xlink:href="#j" transform="matrix(1,0,0,1,1832,812) translate(31.5 84)"/><path d="M1820 268a8 8 0 0 1 8-8h144a8 8 0 0 1 8 8v104a8 8 0 0 1-8 8h-144a8 8 0 0 1-8-8z" stroke="#000" stroke-opacity="0" stroke-width="2" fill="#e3fae3"/><use xlink:href="#k" transform="matrix(1,0,0,1,1832,272) translate(3.049999999999997 19.19999999999999)"/><use xlink:href="#l" transform="matrix(1,0,0,1,1832,272) translate(48.05 19.19999999999999)"/><use xlink:href="#m" transform="matrix(1,0,0,1,1832,272) translate(9.049999999999997 40.79999999999999)"/><use xlink:href="#n" transform="matrix(1,0,0,1,1832,272) translate(97.95 40.79999999999999)"/><use xlink:href="#o" transform="matrix(1,0,0,1,1832,272) translate(8.625 62.39999999999999)"/><use xlink:href="#p" transform="matrix(1,0,0,1,1832,272) translate(85.475 62.39999999999999)"/><use xlink:href="#q" transform="matrix(1,0,0,1,1832,272) translate(35.074999999999996 84)"/><path d="M2060 408a8 8 0 0 1 8-8h144a8 8 0 0 1 8 8v137.6a8 8 0 0 1-8 8h-144a8 8 0 0 1-8-8z" stroke="#000" stroke-opacity="0" stroke-width="2" fill="#ffd6f5"/><use xlink:href="#k" transform="matrix(1,0,0,1,2072,412) translate(7.124999999999993 14.600000000000003)"/><use xlink:href="#r" transform="matrix(1,0,0,1,2072,412) translate(52.12499999999999 14.600000000000003)"/><use xlink:href="#s" transform="matrix(1,0,0,1,2072,412) translate(8.549999999999997 36.2)"/><use xlink:href="#n" transform="matrix(1,0,0,1,2072,412) translate(98.45 36.2)"/><use xlink:href="#o" transform="matrix(1,0,0,1,2072,412) translate(4.100000000000001 57.800000000000004)"/><use xlink:href="#t" transform="matrix(1,0,0,1,2072,412) translate(80.94999999999999 57.800000000000004)"/><use xlink:href="#u" transform="matrix(1,0,0,1,2072,412) translate(106.9 57.800000000000004)"/><use xlink:href="#v" transform="matrix(1,0,0,1,2072,412) translate(38.05 79.40000000000002)"/><use xlink:href="#w" transform="matrix(1,0,0,1,2072,412) translate(18.574999999999996 101.00000000000001)"/><use xlink:href="#x" transform="matrix(1,0,0,1,2072,412) translate(11.625 122.60000000000001)"/><use xlink:href="#q" transform="matrix(1,0,0,1,2072,412) translate(58.525 122.60000000000001)"/><path d="M1800 628.8a8 8 0 0 1 8-8h184a8 8 0 0 1 8 8v104a8 8 0 0 1-8 8h-184a8 8 0 0 1-8-8z" stroke="#000" stroke-opacity="0" stroke-width="2" fill="#cfe4ff"/><use xlink:href="#k" transform="matrix(1,0,0,1,1812,632.8090823861905) translate(7.599999999999994 19.19999999999999)"/><use xlink:href="#y" transform="matrix(1,0,0,1,1812,632.8090823861905) translate(52.599999999999994 19.19999999999999)"/><use xlink:href="#z" transform="matrix(1,0,0,1,1812,632.8090823861905) translate(106.55 19.19999999999999)"/><use xlink:href="#A" transform="matrix(1,0,0,1,1812,632.8090823861905) translate(136.5 19.19999999999999)"/><use xlink:href="#t" transform="matrix(1,0,0,1,1812,632.8090823861905) translate(10.599999999999994 40.79999999999999)"/><use xlink:href="#B" transform="matrix(1,0,0,1,1812,632.8090823861905) translate(36.55 40.79999999999999)"/><use xlink:href="#w" transform="matrix(1,0,0,1,1812,632.8090823861905) translate(66.55 40.79999999999999)"/><use xlink:href="#C" transform="matrix(1,0,0,1,1812,632.8090823861905) translate(32.62499999999999 62.39999999999999)"/><use xlink:href="#D" transform="matrix(1,0,0,1,1812,632.8090823861905) translate(51.025 84)"/><path d="M1893.6 424a10.67 10.67 0 0 1 12.8 0l67.2 50.4a6 6 0 0 1 0 9.6l-67.2 50.4a10.67 10.67 0 0 1-12.8 0l-67.2-50.4a6 6 0 0 1 0-9.6z" stroke="#6db1ff" stroke-width="2" fill="#fff"/><use xlink:href="#E" transform="matrix(1,0,0,1,1825,424.19091761380946) translate(32.05 47.8)"/><use xlink:href="#F" transform="matrix(1,0,0,1,1825,424.19091761380946) translate(20.574999999999996 69.4)"/><path d="M1901 602.3h-2v-12.33h2zm0-33.93h-2v-29.84h2z" stroke="#008a0e" stroke-width=".05" fill="#008a0e"/><path d="M1900 537.53l1-.07v1.1h-2v-1.1z" fill="#008a0e"/><path d="M1900 537.5l1.03-.07v1.15h-2.06v-1.15zm-.97 1.03h1.94v-1.04l-.97.05-.97-.06z" stroke="#008a0e" stroke-width=".05" fill="#008a0e"/><path d="M1900 617.57l-4.63-14.26h9.27z" fill="#008a0e"/><path d="M1900 620.8l-6-18.5h12zm-3.26-16.5l3.26 10.04 3.26-10.03z" stroke="#008a0e" stroke-width=".05" fill="#008a0e"/><use xlink:href="#G" transform="matrix(1,0,0,1,1885.325,568.3677182805653) translate(0.005000000000000782 14.4)"/><path d="M2007.03 480.2H1978v-2h29.03zm34.47-2.4h-11.52v-2h11.52z" stroke="#e81313" stroke-width=".05" fill="#e81313"/><path d="M1978.03 480.2h-1.12l.1-1-.1-1h1.13z" fill="#e81313"/><path d="M1978.06 480.22h-1.18l.1-1.03-.1-1.03h1.17zm-1.12-2l.1.97-.1.97h1.07v-1.95z" stroke="#e81313" stroke-width=".05" fill="#e81313"/><path d="M2056.76 476.8l-14.26 4.63v-9.26z" fill="#e81313"/><path d="M2060 476.8l-18.5 6v-12zm-16.5 3.26l10.03-3.26-10.03-3.26z" stroke="#e81313" stroke-width=".05" fill="#e81313"/><use xlink:href="#H" transform="matrix(1,0,0,1,2007.0271613552443,467.1954588069047) translate(0.005000000000000782 14.4)"/><path d="M2140 554.6v114.2a12 12 0 0 1-12 12h-109.5" stroke="#3a414a" stroke-width="2" fill="none"/><path d="M2141 554.63h-2v-1.03h2z" stroke="#3a414a" stroke-width=".05" fill="#3a414a"/><path d="M2003.24 680.8l14.26-4.63v9.27z" stroke="#3a414a" stroke-width="2" fill="#3a414a"/><path d="M1900 741.8v39.7" stroke="#3a414a" stroke-width="2" fill="none"/><path d="M1901 741.84h-2v-1.03h2z" stroke="#3a414a" stroke-width=".05" fill="#3a414a"/><path d="M1900 796.76l-4.63-14.26h9.27z" stroke="#3a414a" stroke-width="2" fill="#3a414a"/><path d="M1900 221.8v19.7" stroke="#3a414a" stroke-width="2" fill="none"/><path d="M1901 221.84h-2v-1.03h2z" stroke="#3a414a" stroke-width=".05" fill="#3a414a"/><path d="M1900 256.76l-4.63-14.26h9.27z" stroke="#3a414a" stroke-width="2" fill="#3a414a"/><path d="M1900 381v21.35" stroke="#3a414a" stroke-width="2" fill="none"/><path d="M1901 381.03h-2V380h2z" stroke="#3a414a" stroke-width=".05" fill="#3a414a"/><path d="M1900 417.62l-4.63-14.27h9.27z" stroke="#3a414a" stroke-width="2" fill="#3a414a"/><path d="M1819 160.8h-9m-9 0h-9l-1.88.16-1.83.44-1.75.72-1.6.98-1.43 1.22-1.23 1.44-1 1.6-.7 1.74-.45 1.83-.15 1.88v9.8m0 9.78v19.57m0 9.8v19.56m0 9.8v19.56m0 9.8V300m0 9.78v19.57m0 9.8v19.56m0 9.8v19.56m0 9.77v19.57m0 9.8v19.56m0 9.78v19.58m0 9.78v19.57m0 9.8v19.57m0 9.78v19.57m0 9.8v19.56m0 9.8v19.56m0 9.78v19.57m0 9.78v19.57m0 9.78V711m0 9.8v19.56m0 9.8v19.56m0 9.78v19.57m0 9.8v19.56m0 9.8V848l.15 1.88.44 1.83.7 1.75 1 1.6 1.22 1.44 1.43 1.2 1.6 1 1.74.7 1.82.45 1.88.15h9.5" stroke="#3a414a" stroke-width="2" fill="none"/><path d="M1820 161.8h-1.03v-2h1.03z" stroke="#3a414a" stroke-width=".05" fill="#3a414a"/><path d="M1816.76 860l-14.26 4.63v-9.26z" stroke="#3a414a" stroke-width="2" fill="#3a414a"/><path d="M2351.5 410H2733v100.1h-381.5z" fill="#fcfcca"/><path d="M2351.5 510.1H2733v100.08h-381.5z" fill="#cfe4ff"/><path d="M2351.5 610.18H2733v100.1h-381.5z" fill="#cfe4ff"/><path d="M2351.5 710.28H2733v100.1h-381.5z" fill="#ffd6f5"/><path d="M2351.5 810.37H2733v100.1h-381.5z" fill="#e3fae3"/><path d="M2351.5 410v100.1M2733 410v100.1M2351.5 510.1v100.08M2733 510.1v100.08M2351.5 610.18v100.1M2733 610.18v100.1M2351.5 710.28v100.1M2733 710.28v100.1M2351.5 810.37v100.1M2733 810.37v100.1M2351.5 410H2733M2351.5 510.1H2733M2351.5 610.18H2733M2351.5 710.28H2733M2351.5 810.37H2733M2351.5 910.46H2733" stroke="#3a414a" fill="none"/><g><use xlink:href="#I" transform="matrix(1,0,0,1,2356.5,415) translate(12.199999999999989 27.5)"/><use xlink:href="#J" transform="matrix(1,0,0,1,2356.5,415) translate(104.1 27.5)"/><use xlink:href="#K" transform="matrix(1,0,0,1,2356.5,415) translate(143.05 27.5)"/><use xlink:href="#L" transform="matrix(1,0,0,1,2356.5,415) translate(199 27.5)"/><use xlink:href="#M" transform="matrix(1,0,0,1,2356.5,415) translate(229 27.5)"/><use xlink:href="#N" transform="matrix(1,0,0,1,2356.5,415) translate(319.85 27.5)"/><use xlink:href="#O" transform="matrix(1,0,0,1,2356.5,415) translate(27.225000000000023 49.1)"/><use xlink:href="#P" transform="matrix(1,0,0,1,2356.5,415) translate(66.12500000000003 49.1)"/><use xlink:href="#Q" transform="matrix(1,0,0,1,2356.5,415) translate(137.02500000000003 49.1)"/><use xlink:href="#J" transform="matrix(1,0,0,1,2356.5,415) translate(198.97500000000002 49.1)"/><use xlink:href="#R" transform="matrix(1,0,0,1,2356.5,415) translate(237.925 49.1)"/><use xlink:href="#S" transform="matrix(1,0,0,1,2356.5,415) translate(272.925 49.1)"/><use xlink:href="#T" transform="matrix(1,0,0,1,2356.5,415) translate(64.64999999999999 70.7)"/><use xlink:href="#U" transform="matrix(1,0,0,1,2356.5,415) translate(140.55 70.7)"/><use xlink:href="#L" transform="matrix(1,0,0,1,2356.5,415) translate(165.55 70.7)"/><use xlink:href="#V" transform="matrix(1,0,0,1,2356.5,415) translate(195.55 70.7)"/><use xlink:href="#W" transform="matrix(1,0,0,1,2356.5,415) translate(279.45 70.7)"/></g><g><use xlink:href="#X" transform="matrix(1,0,0,1,2356.5,515.0919987499747) translate(20.224999999999994 38.3)"/><use xlink:href="#Y" transform="matrix(1,0,0,1,2356.5,515.0919987499747) translate(126.075 38.3)"/><use xlink:href="#Z" transform="matrix(1,0,0,1,2356.5,515.0919987499747) translate(190.975 38.3)"/><use xlink:href="#aa" transform="matrix(1,0,0,1,2356.5,515.0919987499747) translate(253.92499999999998 38.3)"/><use xlink:href="#ab" transform="matrix(1,0,0,1,2356.5,515.0919987499747) translate(328.82500000000005 38.3)"/><use xlink:href="#ac" transform="matrix(1,0,0,1,2356.5,515.0919987499747) translate(130.625 59.9)"/></g><g><use xlink:href="#ad" transform="matrix(1,0,0,1,2356.5,615.1839974999492) translate(2.2749999999999773 49.1)"/><use xlink:href="#Z" transform="matrix(1,0,0,1,2356.5,615.1839974999492) translate(93.17499999999998 49.1)"/><use xlink:href="#aa" transform="matrix(1,0,0,1,2356.5,615.1839974999492) translate(156.125 49.1)"/><use xlink:href="#ae" transform="matrix(1,0,0,1,2356.5,615.1839974999492) translate(231.025 49.1)"/><use xlink:href="#ac" transform="matrix(1,0,0,1,2356.5,615.1839974999492) translate(258.975 49.1)"/></g><g><use xlink:href="#X" transform="matrix(1,0,0,1,2356.5,715.2759962499238) translate(38.17499999999998 49.1)"/><use xlink:href="#J" transform="matrix(1,0,0,1,2356.5,715.2759962499238) translate(144.02499999999998 49.1)"/><use xlink:href="#Y" transform="matrix(1,0,0,1,2356.5,715.2759962499238) translate(182.975 49.1)"/><use xlink:href="#af" transform="matrix(1,0,0,1,2356.5,715.2759962499238) translate(247.875 49.1)"/><use xlink:href="#L" transform="matrix(1,0,0,1,2356.5,715.2759962499238) translate(267.875 49.1)"/><use xlink:href="#ag" transform="matrix(1,0,0,1,2356.5,715.2759962499238) translate(297.875 49.1)"/></g><g><use xlink:href="#ad" transform="matrix(1,0,0,1,2356.5,815.3679949998984) translate(45.64999999999998 49.1)"/><use xlink:href="#J" transform="matrix(1,0,0,1,2356.5,815.3679949998984) translate(136.54999999999998 49.1)"/><use xlink:href="#Y" transform="matrix(1,0,0,1,2356.5,815.3679949998984) translate(175.5 49.1)"/><use xlink:href="#af" transform="matrix(1,0,0,1,2356.5,815.3679949998984) translate(240.4 49.1)"/><use xlink:href="#L" transform="matrix(1,0,0,1,2356.5,815.3679949998984) translate(260.4 49.1)"/><use xlink:href="#ag" transform="matrix(1,0,0,1,2356.5,815.3679949998984) translate(290.4 49.1)"/></g><path d="M2372.25 279.28a8 8 0 0 1 8-8h324a8 8 0 0 1 8 8V402a8 8 0 0 1-8 8h-324a8 8 0 0 1-8-8z" stroke="#000" stroke-opacity="0" fill="#fff" fill-opacity="0"/><g><use xlink:href="#ah" transform="matrix(1,0,0,1,2377.25,276.27574905285724) translate(31.526543209876564 53.74444444444445)"/><use xlink:href="#ai" transform="matrix(1,0,0,1,2377.25,276.27574905285724) translate(150.80864197530866 53.74444444444445)"/><use xlink:href="#aj" transform="matrix(1,0,0,1,2377.25,276.27574905285724) translate(16.7376543209877 86.0111111111111)"/><use xlink:href="#ak" transform="matrix(1,0,0,1,2377.25,276.27574905285724) translate(118.09382716049386 86.0111111111111)"/><use xlink:href="#al" transform="matrix(1,0,0,1,2377.25,276.27574905285724) translate(232.89444444444445 86.0111111111111)"/></g><path d="M2307.34 875h-10V701.6h10zm0-216.6h-10V515.45h10z" stroke="#3a414a" stroke-width=".05" fill="#3a414a"/><path d="M2307.34 880h-10v-5.13h10z" stroke="#3a414a" stroke-width=".05" fill="#3a414a"/><path d="M2306.98 510.45h-9.27l4.64-14.27z" fill="#3a414a"/><path d="M2313.86 515.45h-23.03l11.5-35.45z" stroke="#3a414a" stroke-width=".05" fill="#3a414a"/><g><use xlink:href="#am" transform="matrix(1,0,0,1,2275.443181,658.4) translate(0.4799999999999969 14.4)"/><use xlink:href="#an" transform="matrix(1,0,0,1,2275.443181,658.4) translate(0.004999999999999005 36)"/></g><path d="M2020 148a8 8 0 0 1 8-8h224a8 8 0 0 1 8 8v155.33a8 8 0 0 1-8 8h-224a8 8 0 0 1-8-8z" stroke="#000" stroke-opacity="0" fill="#fff" fill-opacity="0"/><g><use xlink:href="#ao" transform="matrix(1,0,0,1,2025,145) translate(39.00154320987656 21.844444444444463)"/><use xlink:href="#ap" transform="matrix(1,0,0,1,2025,145) translate(159.70277777777778 21.844444444444463)"/><use xlink:href="#aq" transform="matrix(1,0,0,1,2025,145) translate(35.266975308641975 54.11111111111112)"/><use xlink:href="#ai" transform="matrix(1,0,0,1,2025,145) translate(41.16759259259261 86.37777777777778)"/><use xlink:href="#ar" transform="matrix(1,0,0,1,2025,145) translate(3.149691358024711 118.64444444444445)"/><use xlink:href="#as" transform="matrix(1,0,0,1,2025,145) translate(117.95030864197531 118.64444444444445)"/><use xlink:href="#at" transform="matrix(1,0,0,1,2025,145) translate(162.69043209876543 118.64444444444445)"/><use xlink:href="#au" transform="matrix(1,0,0,1,2025,145) translate(55.39629629629631 150.9111111111111)"/></g><defs><path fill="#3a414a" d="M185-189c-5-48-123-54-124 2 14 75 158 14 163 119 3 78-121 87-175 55-17-10-28-26-33-46l33-7c5 56 141 63 141-1 0-78-155-14-162-118-5-82 145-84 179-34 5 7 8 16 11 25" id="av"/><path fill="#3a414a" d="M117-194c89-4 53 116 60 194h-32v-121c0-31-8-49-39-48C34-167 62-67 57 0H25l-1-190h30c1 10-1 24 2 32 11-22 29-35 61-36" id="aw"/><path fill="#3a414a" d="M141-36C126-15 110 5 73 4 37 3 15-17 15-53c-1-64 63-63 125-63 3-35-9-54-41-54-24 1-41 7-42 31l-33-3c5-37 33-52 76-52 45 0 72 20 72 64v82c-1 20 7 32 28 27v20c-31 9-61-2-59-35zM48-53c0 20 12 33 32 33 41-3 63-29 60-74-43 2-92-5-92 41" id="ax"/><path fill="#3a414a" d="M115-194c55 1 70 41 70 98S169 2 115 4C84 4 66-9 55-30l1 105H24l-1-265h31l2 30c10-21 28-34 59-34zm-8 174c40 0 45-34 45-75s-6-73-45-74c-42 0-51 32-51 76 0 43 10 73 51 73" id="ay"/><path fill="#3a414a" d="M135-143c-3-34-86-38-87 0 15 53 115 12 119 90S17 21 10-45l28-5c4 36 97 45 98 0-10-56-113-15-118-90-4-57 82-63 122-42 12 7 21 19 24 35" id="az"/><path fill="#3a414a" d="M106-169C34-169 62-67 57 0H25v-261h32l-1 103c12-21 28-36 61-36 89 0 53 116 60 194h-32v-121c2-32-8-49-39-48" id="aA"/><path fill="#3a414a" d="M100-194c62-1 85 37 85 99 1 63-27 99-86 99S16-35 15-95c0-66 28-99 85-99zM99-20c44 1 53-31 53-75 0-43-8-75-51-75s-53 32-53 75 10 74 51 75" id="aB"/><path fill="#3a414a" d="M59-47c-2 24 18 29 38 22v24C64 9 27 4 27-40v-127H5v-23h24l9-43h21v43h35v23H59v120" id="aC"/><g id="a"><use transform="matrix(0.05,0,0,0.05,0,0)" xlink:href="#av"/><use transform="matrix(0.05,0,0,0.05,12,0)" xlink:href="#aw"/><use transform="matrix(0.05,0,0,0.05,22,0)" xlink:href="#ax"/><use transform="matrix(0.05,0,0,0.05,32,0)" xlink:href="#ay"/><use transform="matrix(0.05,0,0,0.05,42,0)" xlink:href="#az"/><use transform="matrix(0.05,0,0,0.05,51,0)" xlink:href="#aA"/><use transform="matrix(0.05,0,0,0.05,61,0)" xlink:href="#aB"/><use transform="matrix(0.05,0,0,0.05,71,0)" xlink:href="#aC"/></g><path fill="#3a414a" d="M114-163C36-179 61-72 57 0H25l-1-190h30c1 12-1 29 2 39 6-27 23-49 58-41v29" id="aD"/><path fill="#3a414a" d="M100-194c63 0 86 42 84 106H49c0 40 14 67 53 68 26 1 43-12 49-29l28 8c-11 28-37 45-77 45C44 4 14-33 15-96c1-61 26-98 85-98zm52 81c6-60-76-77-97-28-3 7-6 17-6 28h103" id="aE"/><path fill="#3a414a" d="M85-194c31 0 48 13 60 33l-1-100h32l1 261h-30c-2-10 0-23-3-31C134-8 116 4 85 4 32 4 16-35 15-94c0-66 23-100 70-100zm9 24c-40 0-46 34-46 75 0 40 6 74 45 74 42 0 51-32 51-76 0-42-9-74-50-73" id="aF"/><path fill="#3a414a" d="M101-234c-31-9-42 10-38 44h38v23H63V0H32v-167H5v-23h27c-7-52 17-82 69-68v24" id="aG"/><path fill="#3a414a" d="M24-231v-30h32v30H24zM24 0v-190h32V0H24" id="aH"/><g id="b"><use transform="matrix(0.05,0,0,0.05,0,0)" xlink:href="#ay"/><use transform="matrix(0.05,0,0,0.05,10,0)" xlink:href="#aD"/><use transform="matrix(0.05,0,0,0.05,15.949999999999998,0)" xlink:href="#aE"/><use transform="matrix(0.05,0,0,0.05,25.950000000000003,0)" xlink:href="#aF"/><use transform="matrix(0.05,0,0,0.05,35.95,0)" xlink:href="#aE"/><use transform="matrix(0.05,0,0,0.05,45.95,0)" xlink:href="#aG"/><use transform="matrix(0.05,0,0,0.05,50.95,0)" xlink:href="#aH"/><use transform="matrix(0.05,0,0,0.05,54.900000000000006,0)" xlink:href="#aw"/><use transform="matrix(0.05,0,0,0.05,64.9,0)" xlink:href="#aE"/><use transform="matrix(0.05,0,0,0.05,74.9,0)" xlink:href="#aF"/></g><path fill="#3a414a" d="M108 0H70L1-190h34L89-25l56-165h34" id="aI"/><path fill="#3a414a" d="M115-194c53 0 69 39 70 98 0 66-23 100-70 100C84 3 66-7 56-30L54 0H23l1-261h32v101c10-23 28-34 59-34zm-8 174c40 0 45-34 45-75 0-40-5-75-45-74-42 0-51 32-51 76 0 43 10 73 51 73" id="aJ"/><path fill="#3a414a" d="M24 0v-261h32V0H24" id="aK"/><g id="c"><use transform="matrix(0.05,0,0,0.05,0,0)" xlink:href="#aI"/><use transform="matrix(0.05,0,0,0.05,9,0)" xlink:href="#ax"/><use transform="matrix(0.05,0,0,0.05,19,0)" xlink:href="#aD"/><use transform="matrix(0.05,0,0,0.05,24.95,0)" xlink:href="#aH"/><use transform="matrix(0.05,0,0,0.05,28.899999999999995,0)" xlink:href="#ax"/><use transform="matrix(0.05,0,0,0.05,38.9,0)" xlink:href="#aJ"/><use transform="matrix(0.05,0,0,0.05,48.9,0)" xlink:href="#aK"/><use transform="matrix(0.05,0,0,0.05,52.85,0)" xlink:href="#aE"/><use transform="matrix(0.05,0,0,0.05,62.85,0)" xlink:href="#az"/></g><path fill="#3a414a" d="M233-177c-1 41-23 64-60 70L243 0h-38l-65-103H63V0H30v-248c88 3 205-21 203 71zM63-129c60-2 137 13 137-47 0-61-80-42-137-45v92" id="aL"/><g id="d"><use transform="matrix(0.05,0,0,0.05,0,0)" xlink:href="#aL"/><use transform="matrix(0.05,0,0,0.05,12.950000000000001,0)" xlink:href="#aE"/><use transform="matrix(0.05,0,0,0.05,22.950000000000003,0)" xlink:href="#az"/><use transform="matrix(0.05,0,0,0.05,31.950000000000003,0)" xlink:href="#aC"/><use transform="matrix(0.05,0,0,0.05,36.95,0)" xlink:href="#aB"/><use transform="matrix(0.05,0,0,0.05,46.95,0)" xlink:href="#aD"/><use transform="matrix(0.05,0,0,0.05,52.900000000000006,0)" xlink:href="#aE"/></g><path fill="#3a414a" d="M179-190L93 31C79 59 56 82 12 73V49c39 6 53-20 64-50L1-190h34L92-34l54-156h33" id="aM"/><g id="e"><use transform="matrix(0.05,0,0,0.05,0,0)" xlink:href="#ax"/><use transform="matrix(0.05,0,0,0.05,10,0)" xlink:href="#aw"/><use transform="matrix(0.05,0,0,0.05,20,0)" xlink:href="#aM"/></g><g id="f"><use transform="matrix(0.05,0,0,0.05,0,0)" xlink:href="#ay"/><use transform="matrix(0.05,0,0,0.05,10,0)" xlink:href="#aD"/><use transform="matrix(0.05,0,0,0.05,15.949999999999998,0)" xlink:href="#aE"/><use transform="matrix(0.05,0,0,0.05,25.950000000000003,0)" xlink:href="#aF"/><use transform="matrix(0.05,0,0,0.05,35.95,0)" xlink:href="#aE"/><use transform="matrix(0.05,0,0,0.05,45.95,0)" xlink:href="#aG"/><use transform="matrix(0.05,0,0,0.05,50.95,0)" xlink:href="#aH"/><use transform="matrix(0.05,0,0,0.05,54.900000000000006,0)" xlink:href="#aw"/><use transform="matrix(0.05,0,0,0.05,64.9,0)" xlink:href="#aE"/><use transform="matrix(0.05,0,0,0.05,74.9,0)" xlink:href="#aF"/></g><g id="g"><use transform="matrix(0.05,0,0,0.05,0,0)" xlink:href="#aI"/><use transform="matrix(0.05,0,0,0.05,9,0)" xlink:href="#ax"/><use transform="matrix(0.05,0,0,0.05,19,0)" xlink:href="#aD"/><use transform="matrix(0.05,0,0,0.05,24.95,0)" xlink:href="#az"/></g><path fill="#3a414a" d="M210-169c-67 3-38 105-44 169h-31v-121c0-29-5-50-35-48C34-165 62-65 56 0H25l-1-190h30c1 10-1 24 2 32 10-44 99-50 107 0 11-21 27-35 58-36 85-2 47 119 55 194h-31v-121c0-29-5-49-35-48" id="aN"/><g id="h"><use transform="matrix(0.05,0,0,0.05,0,0)" xlink:href="#aG"/><use transform="matrix(0.05,0,0,0.05,5,0)" xlink:href="#aD"/><use transform="matrix(0.05,0,0,0.05,10.95,0)" xlink:href="#aB"/><use transform="matrix(0.05,0,0,0.05,20.95,0)" xlink:href="#aN"/></g><g id="i"><use transform="matrix(0.05,0,0,0.05,0,0)" xlink:href="#aH"/><use transform="matrix(0.05,0,0,0.05,3.95,0)" xlink:href="#aw"/><use transform="matrix(0.05,0,0,0.05,13.949999999999998,0)" xlink:href="#aH"/><use transform="matrix(0.05,0,0,0.05,17.9,0)" xlink:href="#aC"/><use transform="matrix(0.05,0,0,0.05,22.9,0)" xlink:href="#aH"/><use transform="matrix(0.05,0,0,0.05,26.849999999999994,0)" xlink:href="#ax"/><use transform="matrix(0.05,0,0,0.05,36.849999999999994,0)" xlink:href="#aK"/></g><g id="j"><use transform="matrix(0.05,0,0,0.05,0,0)" xlink:href="#az"/><use transform="matrix(0.05,0,0,0.05,9,0)" xlink:href="#aw"/><use transform="matrix(0.05,0,0,0.05,19,0)" xlink:href="#ax"/><use transform="matrix(0.05,0,0,0.05,29,0)" xlink:href="#ay"/><use transform="matrix(0.05,0,0,0.05,39,0)" xlink:href="#az"/><use transform="matrix(0.05,0,0,0.05,48,0)" xlink:href="#aA"/><use transform="matrix(0.05,0,0,0.05,58,0)" xlink:href="#aB"/><use transform="matrix(0.05,0,0,0.05,68,0)" xlink:href="#aC"/></g><path fill="#3a414a" d="M30 0v-248h33v221h125V0H30" id="aO"/><g id="k"><use transform="matrix(0.05,0,0,0.05,0,0)" xlink:href="#aO"/><use transform="matrix(0.05,0,0,0.05,10,0)" xlink:href="#aB"/><use transform="matrix(0.05,0,0,0.05,20,0)" xlink:href="#ax"/><use transform="matrix(0.05,0,0,0.05,30,0)" xlink:href="#aF"/></g><path fill="#3a414a" d="M16-82v-28h88v28H16" id="aP"/><path fill="#3a414a" d="M96-169c-40 0-48 33-48 73s9 75 48 75c24 0 41-14 43-38l32 2c-6 37-31 61-74 61-59 0-76-41-82-99-10-93 101-131 147-64 4 7 5 14 7 22l-32 3c-4-21-16-35-41-35" id="aQ"/><g id="l"><use transform="matrix(0.05,0,0,0.05,0,0)" xlink:href="#aw"/><use transform="matrix(0.05,0,0,0.05,10,0)" xlink:href="#aB"/><use transform="matrix(0.05,0,0,0.05,20,0)" xlink:href="#aw"/><use transform="matrix(0.05,0,0,0.05,30,0)" xlink:href="#aP"/><use transform="matrix(0.05,0,0,0.05,35.95,0)" xlink:href="#az"/><use transform="matrix(0.05,0,0,0.05,44.95,0)" xlink:href="#aE"/><use transform="matrix(0.05,0,0,0.05,54.95,0)" xlink:href="#aQ"/><use transform="matrix(0.05,0,0,0.05,63.95,0)" xlink:href="#aD"/><use transform="matrix(0.05,0,0,0.05,69.9,0)" xlink:href="#aE"/><use transform="matrix(0.05,0,0,0.05,79.9,0)" xlink:href="#aC"/></g><path fill="#3a414a" d="M84 4C-5 8 30-112 23-190h32v120c0 31 7 50 39 49 72-2 45-101 50-169h31l1 190h-30c-1-10 1-25-2-33-11 22-28 36-60 37" id="aR"/><g id="m"><use transform="matrix(0.05,0,0,0.05,0,0)" xlink:href="#ay"/><use transform="matrix(0.05,0,0,0.05,10,0)" xlink:href="#aD"/><use transform="matrix(0.05,0,0,0.05,15.949999999999998,0)" xlink:href="#aB"/><use transform="matrix(0.05,0,0,0.05,25.950000000000003,0)" xlink:href="#aF"/><use transform="matrix(0.05,0,0,0.05,35.95,0)" xlink:href="#aR"/><use transform="matrix(0.05,0,0,0.05,45.95,0)" xlink:href="#aQ"/><use transform="matrix(0.05,0,0,0.05,54.95,0)" xlink:href="#aC"/><use transform="matrix(0.05,0,0,0.05,59.95,0)" xlink:href="#aH"/><use transform="matrix(0.05,0,0,0.05,63.900000000000006,0)" xlink:href="#aB"/><use transform="matrix(0.05,0,0,0.05,73.9,0)" xlink:href="#aw"/></g><g id="n"><use transform="matrix(0.05,0,0,0.05,0,0)" xlink:href="#aE"/><use transform="matrix(0.05,0,0,0.05,10,0)" xlink:href="#aw"/><use transform="matrix(0.05,0,0,0.05,20,0)" xlink:href="#aI"/></g><g id="o"><use transform="matrix(0.05,0,0,0.05,0,0)" xlink:href="#aI"/><use transform="matrix(0.05,0,0,0.05,9,0)" xlink:href="#ax"/><use transform="matrix(0.05,0,0,0.05,19,0)" xlink:href="#aD"/><use transform="matrix(0.05,0,0,0.05,24.95,0)" xlink:href="#aH"/><use transform="matrix(0.05,0,0,0.05,28.899999999999995,0)" xlink:href="#ax"/><use transform="matrix(0.05,0,0,0.05,38.9,0)" xlink:href="#aJ"/><use transform="matrix(0.05,0,0,0.05,48.9,0)" xlink:href="#aK"/><use transform="matrix(0.05,0,0,0.05,52.85,0)" xlink:href="#aE"/><use transform="matrix(0.05,0,0,0.05,62.85,0)" xlink:href="#az"/></g><path fill="#3a414a" d="M87 75C49 33 22-17 22-94c0-76 28-126 65-167h31c-38 41-64 92-64 168S80 34 118 75H87" id="aS"/><g id="p"><use transform="matrix(0.05,0,0,0.05,0,0)" xlink:href="#aS"/><use transform="matrix(0.05,0,0,0.05,5.95,0)" xlink:href="#aD"/><use transform="matrix(0.05,0,0,0.05,11.9,0)" xlink:href="#aE"/><use transform="matrix(0.05,0,0,0.05,21.9,0)" xlink:href="#ay"/><use transform="matrix(0.05,0,0,0.05,31.899999999999995,0)" xlink:href="#aB"/></g><path fill="#3a414a" d="M33-261c38 41 65 92 65 168S71 34 33 75H2C39 34 66-17 66-93S39-220 2-261h31" id="aT"/><g id="q"><use transform="matrix(0.05,0,0,0.05,0,0)" xlink:href="#az"/><use transform="matrix(0.05,0,0,0.05,9,0)" xlink:href="#ay"/><use transform="matrix(0.05,0,0,0.05,19,0)" xlink:href="#aE"/><use transform="matrix(0.05,0,0,0.05,29,0)" xlink:href="#aQ"/><use transform="matrix(0.05,0,0,0.05,38,0)" xlink:href="#aH"/><use transform="matrix(0.05,0,0,0.05,41.95,0)" xlink:href="#aG"/><use transform="matrix(0.05,0,0,0.05,46.95,0)" xlink:href="#aH"/><use transform="matrix(0.05,0,0,0.05,50.900000000000006,0)" xlink:href="#aQ"/><use transform="matrix(0.05,0,0,0.05,59.900000000000006,0)" xlink:href="#aT"/></g><g id="r"><use transform="matrix(0.05,0,0,0.05,0,0)" xlink:href="#aS"/><use transform="matrix(0.05,0,0,0.05,5.95,0)" xlink:href="#aB"/><use transform="matrix(0.05,0,0,0.05,15.949999999999998,0)" xlink:href="#aI"/><use transform="matrix(0.05,0,0,0.05,24.95,0)" xlink:href="#aE"/><use transform="matrix(0.05,0,0,0.05,34.95,0)" xlink:href="#aD"/><use transform="matrix(0.05,0,0,0.05,40.900000000000006,0)" xlink:href="#aD"/><use transform="matrix(0.05,0,0,0.05,46.85000000000001,0)" xlink:href="#aH"/><use transform="matrix(0.05,0,0,0.05,50.80000000000001,0)" xlink:href="#aF"/><use transform="matrix(0.05,0,0,0.05,60.80000000000001,0)" xlink:href="#aE"/><use transform="matrix(0.05,0,0,0.05,70.80000000000001,0)" xlink:href="#aT"/></g><g id="s"><use transform="matrix(0.05,0,0,0.05,0,0)" xlink:href="#aw"/><use transform="matrix(0.05,0,0,0.05,10,0)" xlink:href="#aB"/><use transform="matrix(0.05,0,0,0.05,20,0)" xlink:href="#aw"/><use transform="matrix(0.05,0,0,0.05,30,0)" xlink:href="#aP"/><use transform="matrix(0.05,0,0,0.05,35.95,0)" xlink:href="#az"/><use transform="matrix(0.05,0,0,0.05,44.95,0)" xlink:href="#aE"/><use transform="matrix(0.05,0,0,0.05,54.95,0)" xlink:href="#aQ"/><use transform="matrix(0.05,0,0,0.05,63.95,0)" xlink:href="#aD"/><use transform="matrix(0.05,0,0,0.05,69.9,0)" xlink:href="#aE"/><use transform="matrix(0.05,0,0,0.05,79.9,0)" xlink:href="#aC"/></g><g id="t"><use transform="matrix(0.05,0,0,0.05,0,0)" xlink:href="#aG"/><use transform="matrix(0.05,0,0,0.05,5,0)" xlink:href="#aB"/><use transform="matrix(0.05,0,0,0.05,15,0)" xlink:href="#aD"/></g><g id="u"><use transform="matrix(0.05,0,0,0.05,0,0)" xlink:href="#aC"/><use transform="matrix(0.05,0,0,0.05,5,0)" xlink:href="#aA"/><use transform="matrix(0.05,0,0,0.05,15,0)" xlink:href="#aE"/></g><g id="v"><use transform="matrix(0.05,0,0,0.05,0,0)" xlink:href="#az"/><use transform="matrix(0.05,0,0,0.05,9,0)" xlink:href="#ay"/><use transform="matrix(0.05,0,0,0.05,19,0)" xlink:href="#aE"/><use transform="matrix(0.05,0,0,0.05,29,0)" xlink:href="#aQ"/><use transform="matrix(0.05,0,0,0.05,38,0)" xlink:href="#aH"/><use transform="matrix(0.05,0,0,0.05,41.95,0)" xlink:href="#aG"/><use transform="matrix(0.05,0,0,0.05,46.95,0)" xlink:href="#aH"/><use transform="matrix(0.05,0,0,0.05,50.900000000000006,0)" xlink:href="#aQ"/></g><g id="w"><use transform="matrix(0.05,0,0,0.05,0,0)" xlink:href="#aE"/><use transform="matrix(0.05,0,0,0.05,10,0)" xlink:href="#aw"/><use transform="matrix(0.05,0,0,0.05,20,0)" xlink:href="#aI"/><use transform="matrix(0.05,0,0,0.05,29,0)" xlink:href="#aH"/><use transform="matrix(0.05,0,0,0.05,32.95,0)" xlink:href="#aD"/><use transform="matrix(0.05,0,0,0.05,38.900000000000006,0)" xlink:href="#aB"/><use transform="matrix(0.05,0,0,0.05,48.900000000000006,0)" xlink:href="#aw"/><use transform="matrix(0.05,0,0,0.05,58.900000000000006,0)" xlink:href="#aN"/><use transform="matrix(0.05,0,0,0.05,73.85000000000001,0)" xlink:href="#aE"/><use transform="matrix(0.05,0,0,0.05,83.85000000000001,0)" xlink:href="#aw"/><use transform="matrix(0.05,0,0,0.05,93.85000000000001,0)" xlink:href="#aC"/></g><g id="x"><use transform="matrix(0.05,0,0,0.05,0,0)" xlink:href="#aS"/><use transform="matrix(0.05,0,0,0.05,5.95,0)" xlink:href="#aD"/><use transform="matrix(0.05,0,0,0.05,11.9,0)" xlink:href="#aE"/><use transform="matrix(0.05,0,0,0.05,21.9,0)" xlink:href="#ay"/><use transform="matrix(0.05,0,0,0.05,31.899999999999995,0)" xlink:href="#aB"/></g><g id="y"><use transform="matrix(0.05,0,0,0.05,0,0)" xlink:href="#az"/><use transform="matrix(0.05,0,0,0.05,9,0)" xlink:href="#aE"/><use transform="matrix(0.05,0,0,0.05,19,0)" xlink:href="#aQ"/><use transform="matrix(0.05,0,0,0.05,28,0)" xlink:href="#aD"/><use transform="matrix(0.05,0,0,0.05,33.95,0)" xlink:href="#aE"/><use transform="matrix(0.05,0,0,0.05,43.95,0)" xlink:href="#aC"/></g><g id="z"><use transform="matrix(0.05,0,0,0.05,0,0)" xlink:href="#aI"/><use transform="matrix(0.05,0,0,0.05,9,0)" xlink:href="#ax"/><use transform="matrix(0.05,0,0,0.05,19,0)" xlink:href="#aD"/></g><g id="A"><use transform="matrix(0.05,0,0,0.05,0,0)" xlink:href="#aG"/><use transform="matrix(0.05,0,0,0.05,5,0)" xlink:href="#aH"/><use transform="matrix(0.05,0,0,0.05,8.95,0)" xlink:href="#aK"/><use transform="matrix(0.05,0,0,0.05,12.899999999999999,0)" xlink:href="#aE"/><use transform="matrix(0.05,0,0,0.05,22.9,0)" xlink:href="#az"/></g><g id="B"><use transform="matrix(0.05,0,0,0.05,0,0)" xlink:href="#aC"/><use transform="matrix(0.05,0,0,0.05,5,0)" xlink:href="#aA"/><use transform="matrix(0.05,0,0,0.05,15,0)" xlink:href="#aE"/></g><g id="C"><use transform="matrix(0.05,0,0,0.05,0,0)" xlink:href="#aS"/><use transform="matrix(0.05,0,0,0.05,5.95,0)" xlink:href="#az"/><use transform="matrix(0.05,0,0,0.05,14.949999999999998,0)" xlink:href="#aE"/><use transform="matrix(0.05,0,0,0.05,24.95,0)" xlink:href="#aQ"/><use transform="matrix(0.05,0,0,0.05,33.95,0)" xlink:href="#aD"/><use transform="matrix(0.05,0,0,0.05,39.900000000000006,0)" xlink:href="#aE"/><use transform="matrix(0.05,0,0,0.05,49.900000000000006,0)" xlink:href="#aC"/><use transform="matrix(0.05,0,0,0.05,54.900000000000006,0)" xlink:href="#aP"/><use transform="matrix(0.05,0,0,0.05,60.85,0)" xlink:href="#aK"/><use transform="matrix(0.05,0,0,0.05,64.80000000000001,0)" xlink:href="#aB"/><use transform="matrix(0.05,0,0,0.05,74.80000000000001,0)" xlink:href="#ax"/><use transform="matrix(0.05,0,0,0.05,84.80000000000001,0)" xlink:href="#aF"/><use transform="matrix(0.05,0,0,0.05,94.80000000000001,0)" xlink:href="#aE"/><use transform="matrix(0.05,0,0,0.05,104.80000000000001,0)" xlink:href="#aD"/></g><path fill="#3a414a" d="M143 0L79-87 56-68V0H24v-261h32v163l83-92h37l-77 82L181 0h-38" id="aU"/><path fill="#3a414a" d="M177-190C167-65 218 103 67 71c-23-6-38-20-44-43l32-5c15 47 100 32 89-28v-30C133-14 115 1 83 1 29 1 15-40 15-95c0-56 16-97 71-98 29-1 48 16 59 35 1-10 0-23 2-32h30zM94-22c36 0 50-32 50-73 0-42-14-75-50-75-39 0-46 34-46 75s6 73 46 73" id="aV"/><g id="D"><use transform="matrix(0.05,0,0,0.05,0,0)" xlink:href="#ay"/><use transform="matrix(0.05,0,0,0.05,10,0)" xlink:href="#ax"/><use transform="matrix(0.05,0,0,0.05,20,0)" xlink:href="#aQ"/><use transform="matrix(0.05,0,0,0.05,29,0)" xlink:href="#aU"/><use transform="matrix(0.05,0,0,0.05,38,0)" xlink:href="#ax"/><use transform="matrix(0.05,0,0,0.05,48,0)" xlink:href="#aV"/><use transform="matrix(0.05,0,0,0.05,58,0)" xlink:href="#aE"/><use transform="matrix(0.05,0,0,0.05,68,0)" xlink:href="#aT"/></g><path fill="#3a414a" d="M30-248c87 1 191-15 191 75 0 78-77 80-158 76V0H30v-248zm33 125c57 0 124 11 124-50 0-59-68-47-124-48v98" id="aW"/><g id="E"><use transform="matrix(0.05,0,0,0.05,0,0)" xlink:href="#aW"/><use transform="matrix(0.05,0,0,0.05,12,0)" xlink:href="#aD"/><use transform="matrix(0.05,0,0,0.05,17.95,0)" xlink:href="#aB"/><use transform="matrix(0.05,0,0,0.05,27.950000000000003,0)" xlink:href="#aF"/><use transform="matrix(0.05,0,0,0.05,37.95,0)" xlink:href="#aR"/><use transform="matrix(0.05,0,0,0.05,47.95,0)" xlink:href="#aQ"/><use transform="matrix(0.05,0,0,0.05,56.95,0)" xlink:href="#aC"/><use transform="matrix(0.05,0,0,0.05,61.95,0)" xlink:href="#aH"/><use transform="matrix(0.05,0,0,0.05,65.9,0)" xlink:href="#aB"/><use transform="matrix(0.05,0,0,0.05,75.9,0)" xlink:href="#aw"/></g><path fill="#3a414a" d="M103-251c84 0 111 97 45 133-19 10-37 24-39 52H78c0-63 77-55 77-114 0-30-21-42-52-43-32 0-53 17-56 46l-32-2c7-45 34-72 88-72zM77 0v-35h34V0H77" id="aX"/><g id="F"><use transform="matrix(0.05,0,0,0.05,0,0)" xlink:href="#aE"/><use transform="matrix(0.05,0,0,0.05,10,0)" xlink:href="#aw"/><use transform="matrix(0.05,0,0,0.05,20,0)" xlink:href="#aI"/><use transform="matrix(0.05,0,0,0.05,29,0)" xlink:href="#aH"/><use transform="matrix(0.05,0,0,0.05,32.95,0)" xlink:href="#aD"/><use transform="matrix(0.05,0,0,0.05,38.900000000000006,0)" xlink:href="#aB"/><use transform="matrix(0.05,0,0,0.05,48.900000000000006,0)" xlink:href="#aw"/><use transform="matrix(0.05,0,0,0.05,58.900000000000006,0)" xlink:href="#aN"/><use transform="matrix(0.05,0,0,0.05,73.85000000000001,0)" xlink:href="#aE"/><use transform="matrix(0.05,0,0,0.05,83.85000000000001,0)" xlink:href="#aw"/><use transform="matrix(0.05,0,0,0.05,93.85000000000001,0)" xlink:href="#aC"/><use transform="matrix(0.05,0,0,0.05,98.85000000000001,0)" xlink:href="#aX"/></g><path fill="#3a414a" d="M137-103V0h-34v-103L8-248h37l75 118 75-118h37" id="aY"/><g id="G"><use transform="matrix(0.05,0,0,0.05,0,0)" xlink:href="#aY"/><use transform="matrix(0.05,0,0,0.05,10.35,0)" xlink:href="#aE"/><use transform="matrix(0.05,0,0,0.05,20.35,0)" xlink:href="#az"/></g><path fill="#3a414a" d="M190 0L58-211 59 0H30v-248h39L202-35l-2-213h31V0h-41" id="aZ"/><g id="H"><use transform="matrix(0.05,0,0,0.05,0,0)" xlink:href="#aZ"/><use transform="matrix(0.05,0,0,0.05,12.950000000000001,0)" xlink:href="#aB"/></g><path d="M30-248c87 1 191-15 191 75 0 78-77 80-158 76V0H30v-248zm33 125c57 0 124 11 124-50 0-59-68-47-124-48v98" id="ba"/><path d="M114-163C36-179 61-72 57 0H25l-1-190h30c1 12-1 29 2 39 6-27 23-49 58-41v29" id="bb"/><path d="M100-194c63 0 86 42 84 106H49c0 40 14 67 53 68 26 1 43-12 49-29l28 8c-11 28-37 45-77 45C44 4 14-33 15-96c1-61 26-98 85-98zm52 81c6-60-76-77-97-28-3 7-6 17-6 28h103" id="bc"/><path d="M85-194c31 0 48 13 60 33l-1-100h32l1 261h-30c-2-10 0-23-3-31C134-8 116 4 85 4 32 4 16-35 15-94c0-66 23-100 70-100zm9 24c-40 0-46 34-46 75 0 40 6 74 45 74 42 0 51-32 51-76 0-42-9-74-50-73" id="bd"/><path d="M101-234c-31-9-42 10-38 44h38v23H63V0H32v-167H5v-23h27c-7-52 17-82 69-68v24" id="be"/><path d="M24-231v-30h32v30H24zM24 0v-190h32V0H24" id="bf"/><path d="M117-194c89-4 53 116 60 194h-32v-121c0-31-8-49-39-48C34-167 62-67 57 0H25l-1-190h30c1 10-1 24 2 32 11-22 29-35 61-36" id="bg"/><g id="I"><use transform="matrix(0.05,0,0,0.05,0,0)" xlink:href="#ba"/><use transform="matrix(0.05,0,0,0.05,12,0)" xlink:href="#bb"/><use transform="matrix(0.05,0,0,0.05,17.95,0)" xlink:href="#bc"/><use transform="matrix(0.05,0,0,0.05,27.950000000000003,0)" xlink:href="#bd"/><use transform="matrix(0.05,0,0,0.05,37.95,0)" xlink:href="#bc"/><use transform="matrix(0.05,0,0,0.05,47.95,0)" xlink:href="#be"/><use transform="matrix(0.05,0,0,0.05,52.95,0)" xlink:href="#bf"/><use transform="matrix(0.05,0,0,0.05,56.900000000000006,0)" xlink:href="#bg"/><use transform="matrix(0.05,0,0,0.05,66.9,0)" xlink:href="#bc"/><use transform="matrix(0.05,0,0,0.05,76.9,0)" xlink:href="#bd"/></g><path d="M108 0H70L1-190h34L89-25l56-165h34" id="bh"/><path d="M141-36C126-15 110 5 73 4 37 3 15-17 15-53c-1-64 63-63 125-63 3-35-9-54-41-54-24 1-41 7-42 31l-33-3c5-37 33-52 76-52 45 0 72 20 72 64v82c-1 20 7 32 28 27v20c-31 9-61-2-59-35zM48-53c0 20 12 33 32 33 41-3 63-29 60-74-43 2-92-5-92 41" id="bi"/><path d="M135-143c-3-34-86-38-87 0 15 53 115 12 119 90S17 21 10-45l28-5c4 36 97 45 98 0-10-56-113-15-118-90-4-57 82-63 122-42 12 7 21 19 24 35" id="bj"/><g id="J"><use transform="matrix(0.05,0,0,0.05,0,0)" xlink:href="#bh"/><use transform="matrix(0.05,0,0,0.05,9,0)" xlink:href="#bi"/><use transform="matrix(0.05,0,0,0.05,19,0)" xlink:href="#bb"/><use transform="matrix(0.05,0,0,0.05,24.95,0)" xlink:href="#bj"/></g><path d="M115-194c53 0 69 39 70 98 0 66-23 100-70 100C84 3 66-7 56-30L54 0H23l1-261h32v101c10-23 28-34 59-34zm-8 174c40 0 45-34 45-75 0-40-5-75-45-74-42 0-51 32-51 76 0 43 10 73 51 73" id="bk"/><path d="M100-194c62-1 85 37 85 99 1 63-27 99-86 99S16-35 15-95c0-66 28-99 85-99zM99-20c44 1 53-31 53-75 0-43-8-75-51-75s-53 32-53 75 10 74 51 75" id="bl"/><g id="K"><use transform="matrix(0.05,0,0,0.05,0,0)" xlink:href="#bk"/><use transform="matrix(0.05,0,0,0.05,10,0)" xlink:href="#bc"/><use transform="matrix(0.05,0,0,0.05,20,0)" xlink:href="#be"/><use transform="matrix(0.05,0,0,0.05,25,0)" xlink:href="#bl"/><use transform="matrix(0.05,0,0,0.05,35,0)" xlink:href="#bb"/><use transform="matrix(0.05,0,0,0.05,40.95,0)" xlink:href="#bc"/></g><path d="M59-47c-2 24 18 29 38 22v24C64 9 27 4 27-40v-127H5v-23h24l9-43h21v43h35v23H59v120" id="bm"/><path d="M106-169C34-169 62-67 57 0H25v-261h32l-1 103c12-21 28-36 61-36 89 0 53 116 60 194h-32v-121c2-32-8-49-39-48" id="bn"/><g id="L"><use transform="matrix(0.05,0,0,0.05,0,0)" xlink:href="#bm"/><use transform="matrix(0.05,0,0,0.05,5,0)" xlink:href="#bn"/><use transform="matrix(0.05,0,0,0.05,15,0)" xlink:href="#bc"/></g><path d="M115-194c55 1 70 41 70 98S169 2 115 4C84 4 66-9 55-30l1 105H24l-1-265h31l2 30c10-21 28-34 59-34zm-8 174c40 0 45-34 45-75s-6-73-45-74c-42 0-51 32-51 76 0 43 10 73 51 73" id="bo"/><path d="M24 0v-261h32V0H24" id="bp"/><path d="M96-169c-40 0-48 33-48 73s9 75 48 75c24 0 41-14 43-38l32 2c-6 37-31 61-74 61-59 0-76-41-82-99-10-93 101-131 147-64 4 7 5 14 7 22l-32 3c-4-21-16-35-41-35" id="bq"/><g id="M"><use transform="matrix(0.05,0,0,0.05,0,0)" xlink:href="#bi"/><use transform="matrix(0.05,0,0,0.05,10,0)" xlink:href="#bo"/><use transform="matrix(0.05,0,0,0.05,20,0)" xlink:href="#bo"/><use transform="matrix(0.05,0,0,0.05,30,0)" xlink:href="#bp"/><use transform="matrix(0.05,0,0,0.05,33.95,0)" xlink:href="#bf"/><use transform="matrix(0.05,0,0,0.05,37.900000000000006,0)" xlink:href="#bq"/><use transform="matrix(0.05,0,0,0.05,46.900000000000006,0)" xlink:href="#bi"/><use transform="matrix(0.05,0,0,0.05,56.900000000000006,0)" xlink:href="#bm"/><use transform="matrix(0.05,0,0,0.05,61.900000000000006,0)" xlink:href="#bf"/><use transform="matrix(0.05,0,0,0.05,65.85000000000001,0)" xlink:href="#bl"/><use transform="matrix(0.05,0,0,0.05,75.85000000000001,0)" xlink:href="#bg"/></g><path d="M84 4C-5 8 30-112 23-190h32v120c0 31 7 50 39 49 72-2 45-101 50-169h31l1 190h-30c-1-10 1-25-2-33-11 22-28 36-60 37" id="br"/><path d="M33 0v-38h34V0H33" id="bs"/><g id="N"><use transform="matrix(0.05,0,0,0.05,0,0)" xlink:href="#bb"/><use transform="matrix(0.05,0,0,0.05,5.95,0)" xlink:href="#br"/><use transform="matrix(0.05,0,0,0.05,15.949999999999998,0)" xlink:href="#bg"/><use transform="matrix(0.05,0,0,0.05,25.950000000000003,0)" xlink:href="#bj"/><use transform="matrix(0.05,0,0,0.05,34.95,0)" xlink:href="#bs"/></g><path d="M127-220V0H93v-220H8v-28h204v28h-85" id="bt"/><g id="O"><use transform="matrix(0.05,0,0,0.05,0,0)" xlink:href="#bt"/><use transform="matrix(0.05,0,0,0.05,10.950000000000001,0)" xlink:href="#bn"/><use transform="matrix(0.05,0,0,0.05,20.950000000000003,0)" xlink:href="#bf"/><use transform="matrix(0.05,0,0,0.05,24.900000000000002,0)" xlink:href="#bj"/></g><g id="P"><use transform="matrix(0.05,0,0,0.05,0,0)" xlink:href="#bf"/><use transform="matrix(0.05,0,0,0.05,3.95,0)" xlink:href="#bg"/><use transform="matrix(0.05,0,0,0.05,13.949999999999998,0)" xlink:href="#bq"/><use transform="matrix(0.05,0,0,0.05,22.95,0)" xlink:href="#bp"/><use transform="matrix(0.05,0,0,0.05,26.899999999999995,0)" xlink:href="#br"/><use transform="matrix(0.05,0,0,0.05,36.9,0)" xlink:href="#bd"/><use transform="matrix(0.05,0,0,0.05,46.9,0)" xlink:href="#bc"/><use transform="matrix(0.05,0,0,0.05,56.900000000000006,0)" xlink:href="#bj"/></g><path d="M179-190L93 31C79 59 56 82 12 73V49c39 6 53-20 64-50L1-190h34L92-34l54-156h33" id="bu"/><path d="M210-169c-67 3-38 105-44 169h-31v-121c0-29-5-50-35-48C34-165 62-65 56 0H25l-1-190h30c1 10-1 24 2 32 10-44 99-50 107 0 11-21 27-35 58-36 85-2 47 119 55 194h-31v-121c0-29-5-49-35-48" id="bv"/><g id="Q"><use transform="matrix(0.05,0,0,0.05,0,0)" xlink:href="#bj"/><use transform="matrix(0.05,0,0,0.05,9,0)" xlink:href="#bu"/><use transform="matrix(0.05,0,0,0.05,18,0)" xlink:href="#bj"/><use transform="matrix(0.05,0,0,0.05,27,0)" xlink:href="#bm"/><use transform="matrix(0.05,0,0,0.05,32,0)" xlink:href="#bc"/><use transform="matrix(0.05,0,0,0.05,42,0)" xlink:href="#bv"/></g><g id="R"><use transform="matrix(0.05,0,0,0.05,0,0)" xlink:href="#bi"/><use transform="matrix(0.05,0,0,0.05,10,0)" xlink:href="#bg"/><use transform="matrix(0.05,0,0,0.05,20,0)" xlink:href="#bd"/></g><g id="S"><use transform="matrix(0.05,0,0,0.05,0,0)" xlink:href="#bh"/><use transform="matrix(0.05,0,0,0.05,9,0)" xlink:href="#bi"/><use transform="matrix(0.05,0,0,0.05,19,0)" xlink:href="#bb"/><use transform="matrix(0.05,0,0,0.05,24.95,0)" xlink:href="#bf"/><use transform="matrix(0.05,0,0,0.05,28.899999999999995,0)" xlink:href="#bi"/><use transform="matrix(0.05,0,0,0.05,38.9,0)" xlink:href="#bk"/><use transform="matrix(0.05,0,0,0.05,48.9,0)" xlink:href="#bp"/><use transform="matrix(0.05,0,0,0.05,52.85,0)" xlink:href="#bc"/><use transform="matrix(0.05,0,0,0.05,62.85,0)" xlink:href="#bj"/></g><g id="T"><use transform="matrix(0.05,0,0,0.05,0,0)" xlink:href="#bj"/><use transform="matrix(0.05,0,0,0.05,9,0)" xlink:href="#bo"/><use transform="matrix(0.05,0,0,0.05,19,0)" xlink:href="#bc"/><use transform="matrix(0.05,0,0,0.05,29,0)" xlink:href="#bq"/><use transform="matrix(0.05,0,0,0.05,38,0)" xlink:href="#bf"/><use transform="matrix(0.05,0,0,0.05,41.95,0)" xlink:href="#be"/><use transform="matrix(0.05,0,0,0.05,46.95,0)" xlink:href="#bf"/><use transform="matrix(0.05,0,0,0.05,50.900000000000006,0)" xlink:href="#bc"/><use transform="matrix(0.05,0,0,0.05,60.900000000000006,0)" xlink:href="#bd"/></g><g id="U"><use transform="matrix(0.05,0,0,0.05,0,0)" xlink:href="#bl"/><use transform="matrix(0.05,0,0,0.05,10,0)" xlink:href="#bg"/></g><g id="V"><use transform="matrix(0.05,0,0,0.05,0,0)" xlink:href="#bq"/><use transform="matrix(0.05,0,0,0.05,9,0)" xlink:href="#bl"/><use transform="matrix(0.05,0,0,0.05,19,0)" xlink:href="#bv"/><use transform="matrix(0.05,0,0,0.05,33.95,0)" xlink:href="#bv"/><use transform="matrix(0.05,0,0,0.05,48.900000000000006,0)" xlink:href="#bi"/><use transform="matrix(0.05,0,0,0.05,58.900000000000006,0)" xlink:href="#bg"/><use transform="matrix(0.05,0,0,0.05,68.9,0)" xlink:href="#bd"/></g><g id="W"><use transform="matrix(0.05,0,0,0.05,0,0)" xlink:href="#bp"/><use transform="matrix(0.05,0,0,0.05,3.95,0)" xlink:href="#bf"/><use transform="matrix(0.05,0,0,0.05,7.9,0)" xlink:href="#bg"/><use transform="matrix(0.05,0,0,0.05,17.9,0)" xlink:href="#bc"/></g><path d="M30 0v-248h187v28H63v79h144v27H63v87h162V0H30" id="bw"/><g id="X"><use transform="matrix(0.05,0,0,0.05,0,0)" xlink:href="#bw"/><use transform="matrix(0.05,0,0,0.05,12,0)" xlink:href="#bg"/><use transform="matrix(0.05,0,0,0.05,22,0)" xlink:href="#bh"/><use transform="matrix(0.05,0,0,0.05,31,0)" xlink:href="#bf"/><use transform="matrix(0.05,0,0,0.05,34.95,0)" xlink:href="#bb"/><use transform="matrix(0.05,0,0,0.05,40.900000000000006,0)" xlink:href="#bl"/><use transform="matrix(0.05,0,0,0.05,50.900000000000006,0)" xlink:href="#bg"/><use transform="matrix(0.05,0,0,0.05,60.900000000000006,0)" xlink:href="#bv"/><use transform="matrix(0.05,0,0,0.05,75.85000000000001,0)" xlink:href="#bc"/><use transform="matrix(0.05,0,0,0.05,85.85000000000001,0)" xlink:href="#bg"/><use transform="matrix(0.05,0,0,0.05,95.85000000000001,0)" xlink:href="#bm"/></g><g id="Y"><use transform="matrix(0.05,0,0,0.05,0,0)" xlink:href="#bj"/><use transform="matrix(0.05,0,0,0.05,9,0)" xlink:href="#bo"/><use transform="matrix(0.05,0,0,0.05,19,0)" xlink:href="#bc"/><use transform="matrix(0.05,0,0,0.05,29,0)" xlink:href="#bq"/><use transform="matrix(0.05,0,0,0.05,38,0)" xlink:href="#bf"/><use transform="matrix(0.05,0,0,0.05,41.95,0)" xlink:href="#be"/><use transform="matrix(0.05,0,0,0.05,46.95,0)" xlink:href="#bf"/><use transform="matrix(0.05,0,0,0.05,50.900000000000006,0)" xlink:href="#bq"/></g><g id="Z"><use transform="matrix(0.05,0,0,0.05,0,0)" xlink:href="#bj"/><use transform="matrix(0.05,0,0,0.05,9,0)" xlink:href="#bc"/><use transform="matrix(0.05,0,0,0.05,19,0)" xlink:href="#bq"/><use transform="matrix(0.05,0,0,0.05,28,0)" xlink:href="#bb"/><use transform="matrix(0.05,0,0,0.05,33.95,0)" xlink:href="#bc"/><use transform="matrix(0.05,0,0,0.05,43.95,0)" xlink:href="#bm"/><use transform="matrix(0.05,0,0,0.05,48.95,0)" xlink:href="#bj"/></g><path d="M87 75C49 33 22-17 22-94c0-76 28-126 65-167h31c-38 41-64 92-64 168S80 34 118 75H87" id="bx"/><g id="aa"><use transform="matrix(0.05,0,0,0.05,0,0)" xlink:href="#bx"/><use transform="matrix(0.05,0,0,0.05,5.95,0)" xlink:href="#bn"/><use transform="matrix(0.05,0,0,0.05,15.949999999999998,0)" xlink:href="#bi"/><use transform="matrix(0.05,0,0,0.05,25.950000000000003,0)" xlink:href="#bg"/><use transform="matrix(0.05,0,0,0.05,35.95,0)" xlink:href="#bd"/><use transform="matrix(0.05,0,0,0.05,45.95,0)" xlink:href="#bp"/><use transform="matrix(0.05,0,0,0.05,49.900000000000006,0)" xlink:href="#bc"/><use transform="matrix(0.05,0,0,0.05,59.900000000000006,0)" xlink:href="#bd"/></g><g id="ab"><use transform="matrix(0.05,0,0,0.05,0,0)" xlink:href="#bh"/><use transform="matrix(0.05,0,0,0.05,9,0)" xlink:href="#bf"/><use transform="matrix(0.05,0,0,0.05,12.949999999999998,0)" xlink:href="#bi"/></g><path d="M16-82v-28h88v28H16" id="by"/><path d="M33-261c38 41 65 92 65 168S71 34 33 75H2C39 34 66-17 66-93S39-220 2-261h31" id="bz"/><g id="ac"><use transform="matrix(0.05,0,0,0.05,0,0)" xlink:href="#bj"/><use transform="matrix(0.05,0,0,0.05,9,0)" xlink:href="#bc"/><use transform="matrix(0.05,0,0,0.05,19,0)" xlink:href="#bq"/><use transform="matrix(0.05,0,0,0.05,28,0)" xlink:href="#bb"/><use transform="matrix(0.05,0,0,0.05,33.95,0)" xlink:href="#bc"/><use transform="matrix(0.05,0,0,0.05,43.95,0)" xlink:href="#bm"/><use transform="matrix(0.05,0,0,0.05,48.95,0)" xlink:href="#by"/><use transform="matrix(0.05,0,0,0.05,54.900000000000006,0)" xlink:href="#bp"/><use transform="matrix(0.05,0,0,0.05,58.85,0)" xlink:href="#bl"/><use transform="matrix(0.05,0,0,0.05,68.85000000000001,0)" xlink:href="#bi"/><use transform="matrix(0.05,0,0,0.05,78.85000000000001,0)" xlink:href="#bd"/><use transform="matrix(0.05,0,0,0.05,88.85000000000001,0)" xlink:href="#bc"/><use transform="matrix(0.05,0,0,0.05,98.85000000000001,0)" xlink:href="#bb"/><use transform="matrix(0.05,0,0,0.05,104.80000000000001,0)" xlink:href="#bz"/></g><g id="ad"><use transform="matrix(0.05,0,0,0.05,0,0)" xlink:href="#ba"/><use transform="matrix(0.05,0,0,0.05,12,0)" xlink:href="#bb"/><use transform="matrix(0.05,0,0,0.05,17.95,0)" xlink:href="#bl"/><use transform="matrix(0.05,0,0,0.05,27.950000000000003,0)" xlink:href="#bd"/><use transform="matrix(0.05,0,0,0.05,37.95,0)" xlink:href="#br"/><use transform="matrix(0.05,0,0,0.05,47.95,0)" xlink:href="#bq"/><use transform="matrix(0.05,0,0,0.05,56.95,0)" xlink:href="#bm"/><use transform="matrix(0.05,0,0,0.05,61.95,0)" xlink:href="#bf"/><use transform="matrix(0.05,0,0,0.05,65.9,0)" xlink:href="#bl"/><use transform="matrix(0.05,0,0,0.05,75.9,0)" xlink:href="#bg"/></g><g id="ae"><use transform="matrix(0.05,0,0,0.05,0,0)" xlink:href="#bh"/><use transform="matrix(0.05,0,0,0.05,9,0)" xlink:href="#bf"/><use transform="matrix(0.05,0,0,0.05,12.949999999999998,0)" xlink:href="#bi"/></g><g id="af"><use transform="matrix(0.05,0,0,0.05,0,0)" xlink:href="#bm"/><use transform="matrix(0.05,0,0,0.05,5,0)" xlink:href="#bl"/></g><g id="ag"><use transform="matrix(0.05,0,0,0.05,0,0)" xlink:href="#bb"/><use transform="matrix(0.05,0,0,0.05,5.95,0)" xlink:href="#bc"/><use transform="matrix(0.05,0,0,0.05,15.949999999999998,0)" xlink:href="#bo"/><use transform="matrix(0.05,0,0,0.05,25.950000000000003,0)" xlink:href="#bl"/></g><g id="ah"><use transform="matrix(0.07469135802469135,0,0,0.07469135802469135,0,0)" xlink:href="#aL"/><use transform="matrix(0.07469135802469135,0,0,0.07469135802469135,19.34506172839506,0)" xlink:href="#aE"/><use transform="matrix(0.07469135802469135,0,0,0.07469135802469135,34.28333333333333,0)" xlink:href="#az"/><use transform="matrix(0.07469135802469135,0,0,0.07469135802469135,47.72777777777778,0)" xlink:href="#aR"/><use transform="matrix(0.07469135802469135,0,0,0.07469135802469135,62.66604938271604,0)" xlink:href="#aK"/><use transform="matrix(0.07469135802469135,0,0,0.07469135802469135,68.56666666666666,0)" xlink:href="#aC"/><use transform="matrix(0.07469135802469135,0,0,0.07469135802469135,76.0358024691358,0)" xlink:href="#aH"/><use transform="matrix(0.07469135802469135,0,0,0.07469135802469135,81.93641975308643,0)" xlink:href="#aw"/><use transform="matrix(0.07469135802469135,0,0,0.07469135802469135,96.87469135802469,0)" xlink:href="#aV"/></g><g id="ai"><use transform="matrix(0.07469135802469135,0,0,0.07469135802469135,0,0)" xlink:href="#aE"/><use transform="matrix(0.07469135802469135,0,0,0.07469135802469135,14.938271604938269,0)" xlink:href="#aw"/><use transform="matrix(0.07469135802469135,0,0,0.07469135802469135,29.876543209876537,0)" xlink:href="#aI"/><use transform="matrix(0.07469135802469135,0,0,0.07469135802469135,43.32098765432098,0)" xlink:href="#aH"/><use transform="matrix(0.07469135802469135,0,0,0.07469135802469135,49.2216049382716,0)" xlink:href="#aD"/><use transform="matrix(0.07469135802469135,0,0,0.07469135802469135,58.109876543209865,0)" xlink:href="#aB"/><use transform="matrix(0.07469135802469135,0,0,0.07469135802469135,73.04814814814813,0)" xlink:href="#aw"/><use transform="matrix(0.07469135802469135,0,0,0.07469135802469135,87.9864197530864,0)" xlink:href="#aN"/><use transform="matrix(0.07469135802469135,0,0,0.07469135802469135,110.3191358024691,0)" xlink:href="#aE"/><use transform="matrix(0.07469135802469135,0,0,0.07469135802469135,125.25740740740737,0)" xlink:href="#aw"/><use transform="matrix(0.07469135802469135,0,0,0.07469135802469135,140.19567901234564,0)" xlink:href="#aC"/></g><g id="aj"><use transform="matrix(0.07469135802469135,0,0,0.07469135802469135,0,0)" xlink:href="#aI"/><use transform="matrix(0.07469135802469135,0,0,0.07469135802469135,13.444444444444443,0)" xlink:href="#ax"/><use transform="matrix(0.07469135802469135,0,0,0.07469135802469135,28.38271604938271,0)" xlink:href="#aD"/><use transform="matrix(0.07469135802469135,0,0,0.07469135802469135,37.27098765432098,0)" xlink:href="#aH"/><use transform="matrix(0.07469135802469135,0,0,0.07469135802469135,43.1716049382716,0)" xlink:href="#ax"/><use transform="matrix(0.07469135802469135,0,0,0.07469135802469135,58.109876543209865,0)" xlink:href="#aJ"/><use transform="matrix(0.07469135802469135,0,0,0.07469135802469135,73.04814814814813,0)" xlink:href="#aK"/><use transform="matrix(0.07469135802469135,0,0,0.07469135802469135,78.94876543209875,0)" xlink:href="#aE"/></g><g id="ak"><use transform="matrix(0.07469135802469135,0,0,0.07469135802469135,0,0)" xlink:href="#aF"/><use transform="matrix(0.07469135802469135,0,0,0.07469135802469135,14.938271604938269,0)" xlink:href="#aE"/><use transform="matrix(0.07469135802469135,0,0,0.07469135802469135,29.876543209876537,0)" xlink:href="#aG"/><use transform="matrix(0.07469135802469135,0,0,0.07469135802469135,37.34567901234567,0)" xlink:href="#aH"/><use transform="matrix(0.07469135802469135,0,0,0.07469135802469135,43.246296296296286,0)" xlink:href="#aw"/><use transform="matrix(0.07469135802469135,0,0,0.07469135802469135,58.18456790123456,0)" xlink:href="#aH"/><use transform="matrix(0.07469135802469135,0,0,0.07469135802469135,64.08518518518517,0)" xlink:href="#aC"/><use transform="matrix(0.07469135802469135,0,0,0.07469135802469135,71.55432098765431,0)" xlink:href="#aH"/><use transform="matrix(0.07469135802469135,0,0,0.07469135802469135,77.45493827160493,0)" xlink:href="#aB"/><use transform="matrix(0.07469135802469135,0,0,0.07469135802469135,92.3932098765432,0)" xlink:href="#aw"/></g><g id="al"><use transform="matrix(0.07469135802469135,0,0,0.07469135802469135,0,0)" xlink:href="#ay"/><use transform="matrix(0.07469135802469135,0,0,0.07469135802469135,14.938271604938269,0)" xlink:href="#aD"/><use transform="matrix(0.07469135802469135,0,0,0.07469135802469135,23.82654320987654,0)" xlink:href="#aH"/><use transform="matrix(0.07469135802469135,0,0,0.07469135802469135,29.727160493827157,0)" xlink:href="#aB"/><use transform="matrix(0.07469135802469135,0,0,0.07469135802469135,44.66543209876542,0)" xlink:href="#aD"/><use transform="matrix(0.07469135802469135,0,0,0.07469135802469135,53.55370370370369,0)" xlink:href="#aH"/><use transform="matrix(0.07469135802469135,0,0,0.07469135802469135,59.454320987654306,0)" xlink:href="#aC"/><use transform="matrix(0.07469135802469135,0,0,0.07469135802469135,66.92345679012344,0)" xlink:href="#aM"/></g><path fill="#3a414a" d="M197 0v-115H63V0H30v-248h33v105h134v-105h34V0h-34" id="bA"/><g id="am"><use transform="matrix(0.05,0,0,0.05,0,0)" xlink:href="#bA"/><use transform="matrix(0.05,0,0,0.05,12.950000000000001,0)" xlink:href="#aH"/><use transform="matrix(0.05,0,0,0.05,16.900000000000002,0)" xlink:href="#aV"/><use transform="matrix(0.05,0,0,0.05,26.900000000000002,0)" xlink:href="#aA"/><use transform="matrix(0.05,0,0,0.05,36.900000000000006,0)" xlink:href="#aE"/><use transform="matrix(0.05,0,0,0.05,46.900000000000006,0)" xlink:href="#aD"/></g><g id="an"><use transform="matrix(0.05,0,0,0.05,0,0)" xlink:href="#ay"/><use transform="matrix(0.05,0,0,0.05,10,0)" xlink:href="#aD"/><use transform="matrix(0.05,0,0,0.05,15.949999999999998,0)" xlink:href="#aH"/><use transform="matrix(0.05,0,0,0.05,19.9,0)" xlink:href="#aB"/><use transform="matrix(0.05,0,0,0.05,29.899999999999995,0)" xlink:href="#aD"/><use transform="matrix(0.05,0,0,0.05,35.85,0)" xlink:href="#aH"/><use transform="matrix(0.05,0,0,0.05,39.800000000000004,0)" xlink:href="#aC"/><use transform="matrix(0.05,0,0,0.05,44.800000000000004,0)" xlink:href="#aM"/></g><path fill="#3a414a" d="M205 0l-28-72H64L36 0H1l101-248h38L239 0h-34zm-38-99l-47-123c-12 45-31 82-46 123h93" id="bB"/><g id="ao"><use transform="matrix(0.07469135802469135,0,0,0.07469135802469135,0,0)" xlink:href="#bB"/><use transform="matrix(0.07469135802469135,0,0,0.07469135802469135,17.925925925925924,0)" xlink:href="#aK"/><use transform="matrix(0.07469135802469135,0,0,0.07469135802469135,23.82654320987654,0)" xlink:href="#aV"/><use transform="matrix(0.07469135802469135,0,0,0.07469135802469135,38.764814814814805,0)" xlink:href="#aB"/><use transform="matrix(0.07469135802469135,0,0,0.07469135802469135,53.70308641975308,0)" xlink:href="#aD"/><use transform="matrix(0.07469135802469135,0,0,0.07469135802469135,62.591358024691345,0)" xlink:href="#aH"/><use transform="matrix(0.07469135802469135,0,0,0.07469135802469135,68.49197530864197,0)" xlink:href="#aC"/><use transform="matrix(0.07469135802469135,0,0,0.07469135802469135,75.96111111111111,0)" xlink:href="#aA"/><use transform="matrix(0.07469135802469135,0,0,0.07469135802469135,90.89938271604937,0)" xlink:href="#aN"/></g><g id="ap"><use transform="matrix(0.07469135802469135,0,0,0.07469135802469135,0,0)" xlink:href="#aG"/><use transform="matrix(0.07469135802469135,0,0,0.07469135802469135,7.469135802469134,0)" xlink:href="#aB"/><use transform="matrix(0.07469135802469135,0,0,0.07469135802469135,22.407407407407405,0)" xlink:href="#aD"/></g><g id="aq"><use transform="matrix(0.07469135802469135,0,0,0.07469135802469135,0,0)" xlink:href="#aH"/><use transform="matrix(0.07469135802469135,0,0,0.07469135802469135,5.900617283950616,0)" xlink:href="#aN"/><use transform="matrix(0.07469135802469135,0,0,0.07469135802469135,28.233333333333327,0)" xlink:href="#ay"/><use transform="matrix(0.07469135802469135,0,0,0.07469135802469135,43.1716049382716,0)" xlink:href="#aK"/><use transform="matrix(0.07469135802469135,0,0,0.07469135802469135,49.072222222222216,0)" xlink:href="#aE"/><use transform="matrix(0.07469135802469135,0,0,0.07469135802469135,64.01049382716049,0)" xlink:href="#aN"/><use transform="matrix(0.07469135802469135,0,0,0.07469135802469135,86.3432098765432,0)" xlink:href="#aE"/><use transform="matrix(0.07469135802469135,0,0,0.07469135802469135,101.28148148148146,0)" xlink:href="#aw"/><use transform="matrix(0.07469135802469135,0,0,0.07469135802469135,116.21975308641973,0)" xlink:href="#aC"/><use transform="matrix(0.07469135802469135,0,0,0.07469135802469135,123.68888888888887,0)" xlink:href="#aH"/><use transform="matrix(0.07469135802469135,0,0,0.07469135802469135,129.5895061728395,0)" xlink:href="#aw"/><use transform="matrix(0.07469135802469135,0,0,0.07469135802469135,144.52777777777777,0)" xlink:href="#aV"/></g><g id="ar"><use transform="matrix(0.07469135802469135,0,0,0.07469135802469135,0,0)" xlink:href="#aI"/><use transform="matrix(0.07469135802469135,0,0,0.07469135802469135,13.444444444444443,0)" xlink:href="#ax"/><use transform="matrix(0.07469135802469135,0,0,0.07469135802469135,28.38271604938271,0)" xlink:href="#aD"/><use transform="matrix(0.07469135802469135,0,0,0.07469135802469135,37.27098765432098,0)" xlink:href="#aH"/><use transform="matrix(0.07469135802469135,0,0,0.07469135802469135,43.1716049382716,0)" xlink:href="#ax"/><use transform="matrix(0.07469135802469135,0,0,0.07469135802469135,58.109876543209865,0)" xlink:href="#aJ"/><use transform="matrix(0.07469135802469135,0,0,0.07469135802469135,73.04814814814813,0)" xlink:href="#aK"/><use transform="matrix(0.07469135802469135,0,0,0.07469135802469135,78.94876543209875,0)" xlink:href="#aE"/><use transform="matrix(0.07469135802469135,0,0,0.07469135802469135,93.88703703703702,0)" xlink:href="#az"/></g><g id="as"><use transform="matrix(0.07469135802469135,0,0,0.07469135802469135,0,0)" xlink:href="#aS"/><use transform="matrix(0.07469135802469135,0,0,0.07469135802469135,8.88827160493827,0)" xlink:href="#aJ"/><use transform="matrix(0.07469135802469135,0,0,0.07469135802469135,23.82654320987654,0)" xlink:href="#aM"/></g><g id="at"><use transform="matrix(0.07469135802469135,0,0,0.07469135802469135,0,0)" xlink:href="#aR"/><use transform="matrix(0.07469135802469135,0,0,0.07469135802469135,14.938271604938269,0)" xlink:href="#az"/><use transform="matrix(0.07469135802469135,0,0,0.07469135802469135,28.38271604938271,0)" xlink:href="#aH"/><use transform="matrix(0.07469135802469135,0,0,0.07469135802469135,34.28333333333333,0)" xlink:href="#aw"/><use transform="matrix(0.07469135802469135,0,0,0.07469135802469135,49.2216049382716,0)" xlink:href="#aV"/></g><g id="au"><use transform="matrix(0.07469135802469135,0,0,0.07469135802469135,0,0)" xlink:href="#aB"/><use transform="matrix(0.07469135802469135,0,0,0.07469135802469135,14.938271604938269,0)" xlink:href="#aI"/><use transform="matrix(0.07469135802469135,0,0,0.07469135802469135,28.38271604938271,0)" xlink:href="#aE"/><use transform="matrix(0.07469135802469135,0,0,0.07469135802469135,43.32098765432098,0)" xlink:href="#aD"/><use transform="matrix(0.07469135802469135,0,0,0.07469135802469135,52.20925925925925,0)" xlink:href="#aD"/><use transform="matrix(0.07469135802469135,0,0,0.07469135802469135,61.09753086419751,0)" xlink:href="#aH"/><use transform="matrix(0.07469135802469135,0,0,0.07469135802469135,66.99814814814813,0)" xlink:href="#aF"/><use transform="matrix(0.07469135802469135,0,0,0.07469135802469135,81.93641975308638,0)" xlink:href="#aE"/><use transform="matrix(0.07469135802469135,0,0,0.07469135802469135,96.87469135802466,0)" xlink:href="#az"/><use transform="matrix(0.07469135802469135,0,0,0.07469135802469135,110.3191358024691,0)" xlink:href="#aT"/></g></defs></g></svg>